<svg width="485" height="436" viewBox="0 0 485 436" fill="none" xmlns="http://www.w3.org/2000/svg">
<path d="M396.787 435.24C277.818 435.242 159.349 435.262 40.88 435.221C25.2743 435.216 12.5894 429.585 5.03474 415.156C1.9063 409.181 0.481339 402.695 0.476456 395.923C0.441117 346.936 0.402786 297.949 0.367355 248.962C0.346908 220.655 0.809768 192.337 0.152664 164.045C-0.331345 143.206 0.492538 122.408 0.482437 101.59C0.472458 80.9598 16.5408 65.2577 37.1517 65.5719C136.607 67.0878 236.069 66.8214 335.527 66.378C360.505 66.2666 385.514 66.2352 410.479 65.4292C431.735 64.743 449.582 79.8063 448.665 104.966C447.797 128.79 448.442 152.604 448.15 176.42C448.06 183.751 447.959 191.089 448.21 198.412C448.35 202.494 446.985 204.081 442.811 203.982C433.985 203.773 425.134 204.283 416.323 203.866C393.361 202.779 380.406 214.301 372.304 235.132C359.875 267.085 384.998 292.608 406.481 298.099C411.835 299.468 417.431 298.488 422.914 298.582C429.744 298.7 436.579 298.722 443.407 298.57C446.707 298.496 448.194 299.453 448.183 303.065C448.084 336.056 448.316 369.049 448.041 402.038C447.902 418.704 434.814 432.209 418.21 434.385C411.224 435.301 404.266 435.112 396.787 435.24ZM85.124 248.425C85.5651 267.211 89.0814 285.359 96.3303 302.742C124.153 369.462 189.65 403.814 259.123 390.03C307.63 380.405 341.228 350.913 361.233 305.835C362.211 303.632 363.292 301.329 361.732 298.682C358.297 299.638 357.263 302.805 355.18 304.799C324.966 333.722 289.227 342.96 248.906 333.46C213.679 325.161 188.864 302.644 171.433 271.901C159.968 251.679 157.116 229.405 159.275 206.278C161.352 184.024 168.778 163.919 181.429 145.635C193.602 128.042 209.974 115.551 229.162 106.5C230.965 105.649 233.271 104.799 232.763 102.359C232.22 99.752 229.673 100.328 227.749 100.308C219.047 100.217 210.537 101.894 202.109 103.677C128.133 119.327 86.5094 181.237 85.124 248.425ZM255.481 264.716C258.056 265.547 257.086 267.735 257.095 269.37C257.168 283.369 257.126 297.368 257.138 311.367C257.144 318.659 257.727 319.122 264.925 317.456C268.323 316.669 271.706 315.809 275.078 314.915C289.754 311.024 294.433 304.93 294.435 289.669C294.444 243.272 294.438 196.876 294.438 150.462C285.624 154.363 276.373 158.117 267.442 162.52C260.493 165.945 256.953 171.783 257.072 179.888C257.284 194.384 257.038 208.886 257.182 223.384C257.219 227.071 255.946 228.415 252.258 228.304C245.264 228.095 238.26 228.198 231.261 228.225C225.096 228.248 218.867 227.802 212.78 228.521C199.826 230.051 193.422 237.93 191.266 253.885C190.172 261.988 192.369 264.546 200.624 264.568C218.622 264.616 236.621 264.612 255.481 264.716Z" fill="#057368"/>
<path d="M356.668 31.7663C356.669 39.9089 356.35 47.5923 356.779 55.2338C357.072 60.4671 355.104 61.6573 350.203 61.646C294.045 61.5163 237.887 61.5481 181.728 61.6109C139.236 61.6583 96.7444 61.8071 54.2525 61.9254C48.5546 61.9412 43.1021 63.561 37.5667 64.624C36.6103 64.8077 35.6718 65.1198 34.4575 64.0185C39.9393 60.7632 46.0391 60.8341 51.7016 59.5413C81.0087 52.8503 110.373 46.4126 139.706 39.8349C195.121 27.4085 250.522 14.9261 305.941 2.52034C315.043 0.482801 324.25 -1.34862 333.521 1.36897C347.031 5.32893 356.204 17.3357 356.668 31.7663Z" fill="#057368"/>
<path d="M436.457 292.333C426.005 291.888 415.955 293.5 406.097 291.225C388.142 287.081 374.212 269.744 374.229 250.683C374.246 229.832 388.222 213.923 403.963 210.358C405.943 209.909 407.877 209.656 409.874 209.656C429.533 209.652 449.196 209.876 468.849 209.54C476.576 209.408 484.352 214.666 484.055 222.554C483.968 224.854 484.637 227.174 484.649 229.487C484.718 243.814 484.671 258.142 484.726 272.47C484.742 276.705 484.127 280.789 482.136 284.542C479.977 288.614 476.78 291.105 471.898 291.388C460.258 292.06 448.616 292.436 436.457 292.333ZM398.819 252.487C399.734 260.633 404.986 266.13 412.333 266.631C419.307 267.107 425.805 262.511 427.743 255.734C429.685 248.937 426.137 241.537 419.406 238.345C410.101 233.934 400.617 240.078 398.819 252.487Z" fill="#057368"/>
</svg>
