<svg width="149" height="42" viewBox="0 0 149 42" fill="none" xmlns="http://www.w3.org/2000/svg">
<g clip-path="url(#clip0_77_41)">
<path d="M33.7182 40.0783C23.6085 40.0785 13.5412 40.0803 3.47391 40.0768C2.14776 40.0763 1.06982 39.5884 0.427843 38.3382C0.161993 37.8205 0.0409033 37.2584 0.0404883 36.6717C0.0374853 32.4271 0.034228 28.1825 0.0312172 23.938C0.0294796 21.4853 0.0688126 19.0316 0.0129731 16.5802C-0.0281571 14.7746 0.041855 12.9724 0.0409966 11.1687C0.0401486 9.38113 1.4056 8.0206 3.15709 8.04782C11.6086 8.17916 20.0607 8.15609 28.5125 8.11766C30.6351 8.10801 32.7603 8.10529 34.8817 8.03546C36.688 7.976 38.2047 9.28118 38.1267 11.4612C38.053 13.5254 38.1078 15.5889 38.0829 17.6525C38.0753 18.2876 38.0667 18.9235 38.0881 19.558C38.1 19.9117 37.984 20.0492 37.6293 20.0406C36.8792 20.0225 36.1271 20.0667 35.3784 20.0306C33.4271 19.9364 32.3262 20.9347 31.6377 22.7396C30.5815 25.5083 32.7164 27.7198 34.542 28.1956C34.997 28.3142 35.4725 28.2292 35.9385 28.2374C36.5188 28.2476 37.0997 28.2495 37.6799 28.2363C37.9604 28.23 38.0867 28.3129 38.0858 28.6258C38.0774 31.4844 38.097 34.3432 38.0737 37.2016C38.0619 38.6456 36.9497 39.8158 35.5387 40.0043C34.9451 40.0837 34.3538 40.0673 33.7182 40.0783ZM7.23368 23.8915C7.27117 25.5192 7.56997 27.0917 8.18597 28.5979C10.5503 34.3789 16.1161 37.3554 22.0198 36.161C26.1418 35.3271 28.9969 32.7717 30.6969 28.8659C30.78 28.675 30.8719 28.4754 30.7394 28.246C30.4474 28.3289 30.3596 28.6033 30.1826 28.7761C27.615 31.2822 24.5779 32.0826 21.1516 31.2595C18.158 30.5404 16.0493 28.5894 14.5681 25.9256C13.5938 24.1734 13.3514 22.2434 13.5349 20.2395C13.7114 18.3114 14.3425 16.5693 15.4175 14.9851C16.4519 13.4607 17.8432 12.3783 19.4738 11.5941C19.627 11.5204 19.8229 11.4467 19.7798 11.2353C19.7336 11.0094 19.5172 11.0593 19.3537 11.0576C18.6142 11.0497 17.8911 11.195 17.1748 11.3495C10.8885 12.7056 7.35141 18.0698 7.23368 23.8915ZM21.7103 25.303C21.9291 25.375 21.8467 25.5646 21.8474 25.7063C21.8537 26.9192 21.8501 28.1322 21.8511 29.3452C21.8516 29.977 21.9012 30.0171 22.5128 29.8728C22.8016 29.8046 23.0891 29.7301 23.3756 29.6526C24.6228 29.3155 25.0203 28.7875 25.0206 27.4651C25.0213 23.445 25.0208 19.4249 25.0208 15.4033C24.2718 15.7413 23.4857 16.0665 22.7268 16.448C22.1362 16.7449 21.8354 17.2507 21.8455 17.9529C21.8635 19.2089 21.8426 20.4655 21.8549 21.7217C21.858 22.0412 21.7498 22.1576 21.4364 22.1481C20.8421 22.1299 20.2469 22.1388 19.6521 22.1412C19.1283 22.1432 18.5989 22.1045 18.0816 22.1669C16.9808 22.2994 16.4366 22.9821 16.2535 24.3646C16.1604 25.0666 16.3472 25.2882 17.0486 25.2902C18.5781 25.2944 20.1076 25.294 21.7103 25.303Z" fill="#057368"/>
<path d="M30.309 5.11866C30.309 5.82419 30.2819 6.48993 30.3183 7.15204C30.3433 7.60549 30.1761 7.70862 29.7595 7.70764C24.9874 7.6964 20.2151 7.69916 15.4429 7.7046C11.832 7.70871 8.22113 7.7216 4.61024 7.73185C4.12604 7.73322 3.6627 7.87357 3.19231 7.96567C3.11104 7.98159 3.03129 8.00863 2.9281 7.91321C3.39393 7.63115 3.91228 7.63729 4.39347 7.52527C6.88393 6.94552 9.37929 6.38772 11.872 5.81777C16.581 4.74107 21.2889 3.65951 25.9983 2.58459C26.7718 2.40804 27.5541 2.24936 28.342 2.48483C29.4901 2.82795 30.2695 3.86829 30.309 5.11866Z" fill="#057368"/>
<path d="M37.0894 27.696C36.2011 27.6574 35.3471 27.7971 34.5094 27.5999C32.9836 27.2409 31.7999 25.7387 31.8013 24.0871C31.8028 22.2804 32.9904 20.902 34.328 20.593C34.4963 20.5542 34.6606 20.5323 34.8303 20.5322C36.5009 20.5319 38.1718 20.5513 39.8419 20.5222C40.4986 20.5107 41.1594 20.9664 41.1341 21.6498C41.1267 21.8491 41.1836 22.0502 41.1846 22.2506C41.1905 23.492 41.1865 24.7334 41.1912 25.9749C41.1925 26.3418 41.1402 26.6957 40.9711 27.0209C40.7876 27.3737 40.5159 27.5896 40.101 27.614C39.1119 27.6723 38.1226 27.7049 37.0894 27.696ZM33.8909 24.2434C33.9686 24.9493 34.4149 25.4255 35.0393 25.469C35.632 25.5102 36.1842 25.112 36.3488 24.5247C36.5139 23.9358 36.2124 23.2946 35.6403 23.0181C34.8497 22.6359 34.0437 23.1682 33.8909 24.2434Z" fill="#057368"/>
</g>
<path d="M71.5765 11.4116C74.1281 11.4101 74.1287 11.4101 74.1291 13.8604C74.13 20.8041 74.1312 27.7478 74.1303 34.6916C74.1301 36.097 74.1259 36.0983 72.6879 36.1003C71.5535 36.1019 70.4181 36.071 69.2851 36.1094C68.4882 36.1364 68.1839 35.8315 68.1947 35.0234C68.2276 32.5488 68.185 30.0733 68.2176 27.5987C68.2274 26.8519 67.9978 26.5602 67.2191 26.5682C64.1601 26.5997 61.1003 26.5992 58.0413 26.5657C57.2297 26.5567 56.9665 26.8442 56.9799 27.6482C57.0199 30.0537 56.9609 32.461 57.0074 34.8664C57.0259 35.822 56.6619 36.1505 55.7351 36.1131C54.4653 36.0619 53.1915 36.0835 51.9201 36.1089C51.2529 36.1222 51.0333 35.8609 51.034 35.1879C51.0412 27.6264 51.0271 20.0648 51.0008 12.5033C50.9981 11.7343 51.2333 11.3682 52.0671 11.3995C53.3716 11.4484 54.6799 11.4393 55.9851 11.4021C56.7556 11.3801 57.0082 11.7075 57.001 12.4454C56.9776 14.8514 57.0236 17.2583 56.9814 19.6638C56.967 20.4847 57.2551 20.7351 58.0546 20.7257C61.0448 20.6906 64.0363 20.6761 67.0259 20.7301C68.0059 20.7478 68.2466 20.3903 68.2241 19.4708C68.1678 17.1691 68.2324 14.8646 68.1924 12.5622C68.1779 11.728 68.4409 11.3488 69.3093 11.4043C70.0282 11.4502 70.7524 11.4124 71.5765 11.4116Z" fill="black"/>
<path d="M110.51 11.4557C112.763 11.4252 114.929 11.4345 117.094 11.4005C117.733 11.3905 118.087 11.5985 118.321 12.221C121.168 19.8066 124.035 27.3847 126.907 34.961C127.193 35.7143 127.125 36.1316 126.174 36.109C124.662 36.073 123.148 36.0774 121.636 36.1105C121.005 36.1243 120.703 35.8368 120.514 35.2822C120.181 34.3071 119.796 33.35 119.469 32.3734C119.278 31.8042 118.95 31.5578 118.332 31.5627C115.548 31.5847 112.763 31.583 109.978 31.5656C109.264 31.5612 108.815 31.8268 108.573 32.5142C108.266 33.3885 107.87 34.2325 107.58 35.1119C107.342 35.8336 106.953 36.1517 106.156 36.1178C104.749 36.058 103.337 36.1091 101.928 36.1003C100.807 36.0933 100.702 35.9496 101.109 34.8956C103.101 29.7371 105.103 24.5826 107.102 19.4269C107.971 17.1853 108.837 14.9423 109.716 12.7048C109.889 12.2654 109.983 11.7699 110.51 11.4557ZM112.795 20.5857C112.082 22.4215 111.37 24.2573 110.6 26.2392C112.955 26.2769 115.089 26.3425 117.426 26.1908C116.366 23.2695 115.4 20.5006 114.146 17.6118C113.447 18.6287 113.243 19.5759 112.795 20.5857Z" fill="black"/>
<path d="M89.5302 30.5966C91.9004 30.5958 94.1677 30.6143 96.4344 30.5837C97.2061 30.5733 97.5959 30.8322 97.5817 31.6401C97.5619 32.7733 97.5724 33.907 97.5767 35.0405C97.5793 35.7323 97.342 36.114 96.5522 36.1109C91.2967 36.09 86.0411 36.0921 80.7855 36.1074C80.0229 36.1096 79.7595 35.7816 79.7605 35.0506C79.7716 27.4936 79.772 19.9365 79.7583 12.3795C79.757 11.6679 80.0392 11.3927 80.7384 11.4059C82.0432 11.4306 83.3511 11.4572 84.6535 11.3953C85.6233 11.3492 85.8977 11.756 85.8934 12.67C85.8672 18.1659 85.8805 23.662 85.8822 29.1581C85.8827 30.5938 85.8852 30.5943 87.3661 30.5966C88.0531 30.5977 88.7401 30.5967 89.5302 30.5966Z" fill="black"/>
<path d="M135.336 36.1006C134.202 36.1007 133.171 36.0839 132.141 36.1068C131.463 36.1218 131.134 35.8805 131.135 35.1525C131.147 27.5597 131.147 19.9668 131.136 12.3739C131.135 11.6638 131.423 11.3898 132.123 11.4054C133.359 11.4331 134.599 11.4599 135.832 11.3954C136.768 11.3464 137.083 11.6613 137.077 12.6188C137.038 18.1157 137.058 23.6129 137.058 29.11C137.059 30.5925 137.061 30.5951 138.515 30.5963C141.538 30.5988 144.562 30.6253 147.585 30.583C148.541 30.5696 148.876 30.9289 148.825 31.8553C148.771 32.8488 148.758 33.8511 148.826 34.8427C148.897 35.8673 148.456 36.1273 147.498 36.1178C143.479 36.0779 139.459 36.1007 135.336 36.1006Z" fill="black"/>
<defs>
<clipPath id="clip0_77_41">
<rect width="41.1912" height="42" fill="white"/>
</clipPath>
</defs>
</svg>
